<svg width="200" height="200" viewBox="0 0 200 200" xmlns="http://www.w3.org/2000/svg">
  <defs><clipPath id="c"><circle cx="100" cy="100" r="100"/></clipPath></defs>
  <circle cx="100" cy="100" r="100" fill="#F5EDE3"/>
  <g clip-path="url(#c)">
    <!-- Orange turtleneck -->
    <path d="M0 200 L0 158 Q0 140 46 131 L75 121 L100 126 L125 121 L154 131 Q200 140 200 158 L200 200Z" fill="#E8641A"/>
    <!-- Turtleneck collar roll -->
    <path d="M84 127 L84 142 Q100 149 116 142 L116 127 Q100 133 84 127Z" fill="#C84E0E"/>
    <!-- Neck -->
    <path d="M91 126 L91 142 Q100 147 109 142 L109 126 Q100 129 91 126Z" fill="#F2A87C"/>
    <!-- Head -->
    <ellipse cx="100" cy="106" rx="33" ry="37" fill="#F2A87C"/>
    <!-- Bob hair – sides hang to jaw -->
    <path d="M67 106 Q67 72 100 69 Q133 72 133 106 Q131 87 116 79 Q100 75 84 79 Q69 87 67 106Z" fill="#1E0E20"/>
    <ellipse cx="100" cy="73" rx="29" ry="12" fill="#1E0E20"/>
    <!-- Bob left side -->
    <path d="M67 106 L67 124 Q68 133 76 135 L78 122 Q70 117 68 106Z" fill="#1E0E20"/>
    <!-- Bob right side -->
    <path d="M133 106 L133 124 Q132 133 124 135 L122 122 Q130 117 132 106Z" fill="#1E0E20"/>
    <!-- Left ear (hidden under hair) -->
    <!-- Right ear visible -->
    <ellipse cx="133" cy="110" rx="5" ry="7" fill="#F2A87C"/>
    <!-- Orange teardrop earring right -->
    <ellipse cx="138" cy="116" rx="5" ry="5" fill="#E8641A"/>
    <ellipse cx="138" cy="123" rx="3.5" ry="4.5" fill="#E8641A"/>
    <!-- Eyes -->
    <circle cx="89" cy="109" r="4" fill="#1E0E20"/>
    <circle cx="111" cy="109" r="4" fill="#1E0E20"/>
    <circle cx="90.5" cy="107.5" r="1.3" fill="#fff"/>
    <circle cx="112.5" cy="107.5" r="1.3" fill="#fff"/>
    <!-- Eyelashes (upper) -->
    <line x1="85" y1="106" x2="83" y2="103" stroke="#1E0E20" stroke-width="1.3" stroke-linecap="round"/>
    <line x1="88" y1="105" x2="87" y2="102" stroke="#1E0E20" stroke-width="1.3" stroke-linecap="round"/>
    <line x1="107" y1="105" x2="106" y2="102" stroke="#1E0E20" stroke-width="1.3" stroke-linecap="round"/>
    <line x1="110" y1="105" x2="111" y2="102" stroke="#1E0E20" stroke-width="1.3" stroke-linecap="round"/>
    <line x1="113" y1="106" x2="115" y2="103" stroke="#1E0E20" stroke-width="1.3" stroke-linecap="round"/>
    <!-- Eyebrows -->
    <path d="M83 102 Q89 99 95 102" stroke="#1E0E20" stroke-width="2" fill="none" stroke-linecap="round"/>
    <path d="M105 102 Q111 99 117 102" stroke="#1E0E20" stroke-width="2" fill="none" stroke-linecap="round"/>
    <!-- Nose -->
    <path d="M97 116 Q100 121 103 116" stroke="#C8845A" stroke-width="1.8" fill="none" stroke-linecap="round"/>
    <!-- Lips -->
    <path d="M91 125 Q100 131 109 125" stroke="#C84E0E" stroke-width="2.5" fill="none" stroke-linecap="round"/>
  </g>
</svg>
