<svg width="200" height="200" viewBox="0 0 200 200" xmlns="http://www.w3.org/2000/svg">
  <defs><clipPath id="c"><circle cx="100" cy="100" r="100"/></clipPath></defs>
  <circle cx="100" cy="100" r="100" fill="#F5EDE3"/>
  <g clip-path="url(#c)">
    <!-- Dark blazer/jacket -->
    <path d="M0 200 L0 158 Q0 141 46 132 L75 122 L100 127 L125 122 L154 132 Q200 141 200 158 L200 200Z" fill="#3B1F3A"/>
    <!-- Orange shirt collar peek -->
    <path d="M88 129 L100 125 L112 129 L112 140 Q100 144 88 140Z" fill="#E8641A"/>
    <!-- Neck -->
    <path d="M91 127 L91 143 Q100 148 109 143 L109 127 Q100 130 91 127Z" fill="#F2A87C"/>
    <!-- Head -->
    <ellipse cx="100" cy="108" rx="33" ry="37" fill="#F2A87C"/>
    <!-- Tighter, more compact curly hair -->
    <path d="M68 108 Q67 72 100 68 Q133 72 132 108 Q130 88 116 80 Q100 76 84 80 Q70 88 68 108Z" fill="#1E0E20"/>
    <circle cx="82" cy="80" r="14" fill="#1E0E20"/>
    <circle cx="100" cy="74" r="16" fill="#1E0E20"/>
    <circle cx="118" cy="80" r="14" fill="#1E0E20"/>
    <circle cx="73" cy="95" r="11" fill="#1E0E20"/>
    <circle cx="127" cy="95" r="11" fill="#1E0E20"/>
    <!-- Ears -->
    <ellipse cx="67" cy="113" rx="5" ry="7" fill="#F2A87C"/>
    <ellipse cx="133" cy="113" rx="5" ry="7" fill="#F2A87C"/>
    <!-- Eyes -->
    <circle cx="89" cy="112" r="4" fill="#1E0E20"/>
    <circle cx="111" cy="112" r="4" fill="#1E0E20"/>
    <circle cx="90.5" cy="110.5" r="1.3" fill="#fff"/>
    <circle cx="112.5" cy="110.5" r="1.3" fill="#fff"/>
    <!-- Eyebrows -->
    <path d="M83 105 Q89 102 95 105" stroke="#1E0E20" stroke-width="2.4" fill="none" stroke-linecap="round"/>
    <path d="M105 105 Q111 102 117 105" stroke="#1E0E20" stroke-width="2.4" fill="none" stroke-linecap="round"/>
    <!-- Nose -->
    <path d="M97 119 Q100 124 103 119" stroke="#C8845A" stroke-width="1.8" fill="none" stroke-linecap="round"/>
    <!-- Smile -->
    <path d="M91 128 Q100 135 109 128" stroke="#1E0E20" stroke-width="2.2" fill="none" stroke-linecap="round"/>
  </g>
</svg>
