<svg width="200" height="200" viewBox="0 0 200 200" xmlns="http://www.w3.org/2000/svg">
  <defs><clipPath id="c"><circle cx="100" cy="100" r="100"/></clipPath></defs>
  <circle cx="100" cy="100" r="100" fill="#F5EDE3"/>
  <g clip-path="url(#c)">
    <!-- Shirt -->
    <path d="M0 200 L0 162 Q0 145 45 136 L75 127 L100 132 L125 127 L155 136 Q200 145 200 162 L200 200Z" fill="#3B1F3A"/>
    <!-- Neck -->
    <path d="M91 134 L91 150 Q100 156 109 150 L109 134 Q100 137 91 134Z" fill="#F2A87C"/>
    <!-- Head -->
    <ellipse cx="100" cy="110" rx="33" ry="37" fill="#F2A87C"/>
    <!-- Curly hair – layered circles -->
    <circle cx="100" cy="74" r="26" fill="#1E0E20"/>
    <circle cx="79" cy="81" r="21" fill="#1E0E20"/>
    <circle cx="121" cy="81" r="21" fill="#1E0E20"/>
    <circle cx="69" cy="97" r="17" fill="#1E0E20"/>
    <circle cx="131" cy="97" r="17" fill="#1E0E20"/>
    <circle cx="74" cy="111" r="13" fill="#1E0E20"/>
    <circle cx="126" cy="111" r="13" fill="#1E0E20"/>
    <!-- Ears -->
    <ellipse cx="67" cy="113" rx="5" ry="7" fill="#F2A87C"/>
    <ellipse cx="133" cy="113" rx="5" ry="7" fill="#F2A87C"/>
    <!-- Eyes -->
    <circle cx="89" cy="113" r="4" fill="#1E0E20"/>
    <circle cx="111" cy="113" r="4" fill="#1E0E20"/>
    <circle cx="90.5" cy="111.5" r="1.3" fill="#fff"/>
    <circle cx="112.5" cy="111.5" r="1.3" fill="#fff"/>
    <!-- Eyebrows -->
    <path d="M83 106 Q89 103 95 106" stroke="#1E0E20" stroke-width="2.4" fill="none" stroke-linecap="round"/>
    <path d="M105 106 Q111 103 117 106" stroke="#1E0E20" stroke-width="2.4" fill="none" stroke-linecap="round"/>
    <!-- Nose -->
    <path d="M97 120 Q100 125 103 120" stroke="#C8845A" stroke-width="1.8" fill="none" stroke-linecap="round"/>
    <!-- Smile -->
    <path d="M91 129 Q100 136 109 129" stroke="#1E0E20" stroke-width="2.2" fill="none" stroke-linecap="round"/>
  </g>
</svg>
